<?xml version="1.0" encoding="UTF-8" standalone="no"?>
<!-- Created with Inkscape (http://www.inkscape.org/) -->

<svg
   version="1.1"
   id="svg2"
   width="700"
   height="700"
   viewBox="-23 -50 699.99999 700"
   sodipodi:docname="orexpert.svg"
   inkscape:version="1.2.1 (9c6d41e410, 2022-07-14)"
   xmlns:inkscape="http://www.inkscape.org/namespaces/inkscape"
   xmlns:sodipodi="http://sodipodi.sourceforge.net/DTD/sodipodi-0.dtd"
   xmlns="http://www.w3.org/2000/svg"
   xmlns:svg="http://www.w3.org/2000/svg">
  <defs
     id="defs6" />
  <sodipodi:namedview
     id="namedview4"
     pagecolor="#ffffff"
     bordercolor="#000000"
     borderopacity="0.25"
     inkscape:showpageshadow="2"
     inkscape:pageopacity="0.0"
     inkscape:pagecheckerboard="0"
     inkscape:deskcolor="#d1d1d1"
     showgrid="false"
     inkscape:zoom="0.23046875"
     inkscape:cx="-418.71186"
     inkscape:cy="310.23729"
     inkscape:window-width="1440"
     inkscape:window-height="890"
     inkscape:window-x="-6"
     inkscape:window-y="-6"
     inkscape:window-maximized="1"
     inkscape:current-layer="g8" />
  <g
     inkscape:groupmode="layer"
     inkscape:label="Image"
     id="g8"
     transform="translate(-181.12091,-205)">
    <path
       style="display:inline;fill:#23af85"
       d="m 364.48475,513.69455 c -33.60896,-14.73283 -57.24672,-30.47518 -80.04456,-53.30832 -33.67036,-33.72249 -51.40926,-70.75522 -56.49263,-117.9372 -2.69205,-24.98654 0.55032,-31.23257 14.53008,-27.99045 25.56405,5.9287 58.08565,26.0672 84.02236,52.02956 28.67959,28.70794 38.30709,50.42391 45.44732,102.51186 1.16861,8.525 3.45853,23.01215 5.08872,32.19367 1.63018,9.18152 2.96396,16.94402 2.96396,17.25 0,1.45717 -4.49832,0.0803 -15.51525,-4.74912 z"
       id="path4310" />
    <path
       style="display:inline;fill:#23af85"
       d="m 634.61456,530.18537 c -0.2794,-0.45209 0.51936,-3.04124 1.77503,-5.75367 5.41804,-11.70376 10.674,-30.86434 17.12572,-62.4317 5.88213,-28.78044 7.80623,-36.27773 12.17009,-47.4208 6.49029,-16.57286 15.74619,-29.90104 30.97146,-44.59782 23.54267,-22.72547 48.87305,-39.33815 77.56245,-50.86857 17.5105,-7.03756 22.61798,-6.90545 26.07631,0.6745 1.87332,4.10595 2.13539,6.3864 2.03558,17.71269 -0.25968,29.46618 -9.3779,60.86653 -25.4466,87.63022 -10.46428,17.42909 -18.71438,27.83081 -34.82173,43.90325 -26.41568,26.35841 -51.37154,42.02026 -89.56287,56.20804 -13.92991,5.17485 -17.18636,6.07499 -17.88544,4.94386 z"
       id="path4308" />
    <path
       style="display:inline;fill:#23af85"
       d="m 311,600.89831 c -48.96986,-4.92547 -110.92883,-30.8714 -127.13051,-53.23717 -6.80228,-9.39027 -1.18151,-16.0091 19.13051,-22.52741 20.12742,-6.45907 38.743,-8.64273 66.88105,-7.84535 55.02378,1.55927 101.84755,18.78194 142.61895,52.45794 11.28722,9.32292 16.35498,14.85846 14.85223,16.22316 -1.73183,1.57272 -42.21499,11.52385 -57.35223,14.09769 -8.71554,1.48194 -47.14708,2.02333 -59,0.83114 z"
       id="path4306" />
    <path
       style="display:inline;fill:#23af85"
       d="M 682.69359,620.93971 C 663.85612,619.26818 652.09144,615.915 628.71857,605.55566 620.89835,602.08959 610,597.58193 604.5,595.53865 c -5.5,-2.04329 -10.45,-4.16776 -11,-4.72106 -2.05299,-2.0653 22.19921,-22.58073 37.273,-31.52998 19.9103,-11.82066 50.0831,-21.14123 78.43759,-24.22985 14.56987,-1.58708 45.62975,-1.31211 59.94767,0.53071 38.19258,4.91566 74.41148,20.82299 76.48353,33.59156 0.84363,5.19869 -1.67431,9.05367 -9.91369,15.17796 -23.57001,17.51944 -53.94399,28.86681 -91.2281,34.08178 -24.22934,3.38899 -43.15855,4.15463 -61.80641,2.49994 z"
       id="path4304" />
    <path
       style="display:inline;fill:#23af85"
       d="m 304.43353,757.92655 c -5.8401,-6.45324 -0.46023,-35.31655 11.16174,-59.88333 10.06875,-21.28355 27.96861,-42.82184 48.33507,-58.15996 18.05728,-13.59904 44.42084,-25.23755 66.72365,-29.45594 14.7538,-2.79056 49.36689,-1.77707 52.71068,1.54339 0.94008,0.93352 -31.65913,39.83049 -52.40524,62.52929 -30.00011,32.8238 -64.14929,60.45821 -93.5937,75.73845 -18.87746,9.7965 -28.90549,12.13757 -32.9322,7.6881 z"
       id="path4302" />
    <path
       style="display:inline;fill:#23af85"
       d="M 693.5,763.58116 C 650.84588,749.38735 593.01503,698.87771 556.01344,643.5 c -2.93993,-4.4 -8.89799,-12.66675 -13.24012,-18.37055 -4.34213,-5.7038 -7.68113,-10.92731 -7.42,-11.60781 0.70505,-1.83734 5.61198,-2.52232 18.02168,-2.51574 39.6018,0.021 76.55606,16.31872 108.42174,47.81665 27.78687,27.46619 47.15436,64.18132 48.88802,92.67745 0.49953,8.21081 0.35562,9.24114 -1.64119,11.75 -2.73703,3.4389 -5.9958,3.50833 -15.54357,0.33116 z"
       id="path4300" />
    <path
       style="display:inline;fill:#23af85"
       d="m 502.41867,807.92493 c -1.69474,-0.49209 -3.92589,-1.82792 -4.95811,-2.96851 -1.8128,-2.00312 -1.86977,-5.55734 -1.67134,-104.26512 0.11299,-56.20521 -0.14655,-103.75282 -0.57676,-105.66134 -0.77484,-3.43742 -0.87711,-3.4946 -10.88242,-6.0844 -35.16379,-9.1019 -61.63698,-34.58282 -73.70829,-70.94556 -4.47886,-13.4918 -5.95091,-20.92749 -9.10667,-46 -4.6097,-36.62414 -7.31535,-48.9089 -16.52741,-75.04132 -6.9811,-19.80373 -9.25756,-34.73532 -9.29372,-60.95868 -0.0295,-21.4346 1.67351,-37.39627 5.86835,-55 4.11106,-17.25212 8.06391,-21.91329 16.1987,-19.10138 9.34706,3.23096 34.11768,22.48699 56.11514,43.62243 11.80936,11.34659 14.51037,13.49586 15.52952,12.35727 0.67855,-0.75808 2.46194,-9.25332 3.96308,-18.87832 3.80833,-24.41821 10.2879,-55.81099 13.72582,-66.5 3.81737,-11.86878 8.58614,-20.23519 13.82226,-24.25 3.59216,-2.75429 5.07327,-3.25 9.71058,-3.25 6.77994,0 9.9695,1.602 15.36341,7.71647 5.29305,6.00013 9.406,14.06255 12.00312,23.52914 2.8389,10.3479 7.48143,38.79524 10.07814,61.75439 1.21302,10.725 2.55837,19.89283 2.98967,20.37296 0.4313,0.48013 8.35635,-5.92566 17.61122,-14.23508 27.38582,-24.58818 49.068,-40.57247 56.71953,-41.81415 7.43557,-1.20662 10.97002,4.02584 15.16598,22.45203 5.65174,24.81911 6.8992,51.4219 3.83221,81.72424 -1.30022,12.84646 -2.37687,18.36516 -5.46253,28 -10.11872,31.59531 -13.03919,44.46672 -17.95531,79.1348 -4.67949,32.99937 -10.1452,52.25281 -19.26573,67.8652 -15.17693,25.97963 -35.01085,40.21323 -67.25357,48.2638 L 527.5,591.5 526.98864,698 c -0.28125,58.575 -0.61875,106.6345 -0.75,106.79889 -0.13125,0.16439 -2.15114,1.16701 -4.48864,2.22804 -4.55979,2.06977 -13.81508,2.4997 -19.33133,0.898 z M 515.9569,498.81158 c 8.98749,-21.1656 29.62068,-46.30518 58.2931,-71.0246 7.0125,-6.0457 12.75,-11.58331 12.75,-12.30581 0,-2.55431 -9.89675,-16.06501 -16.205,-22.1225 -15.36995,-14.75899 -33.11582,-22.4603 -55.295,-23.9968 -24.1441,-1.67261 -47.24465,6.35559 -64.73286,22.4968 C 443.81097,398.27906 433,411.44864 433,413.50203 c 0,0.75406 6.4125,6.74293 14.25,13.3086 28.95959,24.26018 49.54011,49.13976 60.46381,73.0941 3.86284,8.47074 4.20105,8.42589 8.24309,-1.09315 z"
       id="path4267" />
    <path
       style="display:inline;fill:#0b735c"
       d="m 505.78088,363.40404 c -5.41799,-7.83093 -20.75857,-26.38916 -28.62983,-34.63485 -4.95748,-5.19331 -7.18254,-8.24473 -6.77893,-9.29653 0.33045,-0.86114 2.16124,-11.10727 4.06842,-22.76919 9.39609,-57.45466 16.32023,-80.17125 26.73658,-87.71682 5.00408,-3.62493 8.58354,-4.39746 13.82984,-2.98478 8.82686,2.37683 17.13466,13.39783 21.48233,28.49813 4.44323,15.43223 9.54211,47.68856 12.88299,81.5 l 0.54346,5.5 -9.58938,10.5 c -5.27416,5.775 -14.09429,16.125 -19.6003,23 -5.506,6.875 -10.38293,12.64537 -10.83761,12.82304 -0.45468,0.17767 -2.30309,-1.81088 -4.10757,-4.419 z"
       id="path4332" />
    <path
       style="display:inline;fill:#0b735c"
       d="m 504.54169,593.19956 c -3.82707,-0.16524 -7.50495,-0.75411 -8.17307,-1.30859 -0.66811,-0.55449 -6.22032,-2.32143 -12.33823,-3.92653 -28.43823,-7.46108 -51.80035,-26.34722 -65.38819,-52.86038 -8.53857,-16.66081 -12.28441,-31.10191 -16.18565,-62.39949 -4.46135,-35.79105 -6.72543,-46.26614 -15.91515,-73.63359 -3.03418,-9.03596 -5.26311,-16.6826 -4.95318,-16.99254 1.50208,-1.50207 48.29527,28.52922 50.41604,32.35639 0.62941,1.13584 3.47344,3.86437 6.32006,6.06339 31.15869,24.07012 57.47186,54.68159 68.33859,79.50178 2.06016,4.70552 3.86245,7.5 4.83709,7.5 0.97458,0 2.77727,-2.79475 4.83771,-7.5 10.22728,-23.35525 35.62132,-53.76098 63.06083,-75.50633 4.7308,-3.74908 8.60146,-7.15441 8.60146,-7.56741 0,-1.06678 18.18132,-14.16896 33.53005,-24.16308 14.29109,-9.30545 19.38461,-12.18186 20.17388,-11.39259 0.28493,0.28494 -2.00188,8.30562 -5.0818,17.82374 -9.03441,27.91967 -11.23957,38.20636 -18.15037,84.6681 -4.22939,28.43447 -10.32525,46.53862 -21.27111,63.17327 -6.79353,10.32427 -11.97354,15.89053 -21.3934,22.98861 -12.18681,9.18304 -24.62792,14.87564 -40.61201,18.5826 -3.59067,0.83273 -7.69101,2.10652 -9.11186,2.83064 -2.95489,1.50591 -11.42575,2.19879 -21.54169,1.76201 z"
       id="path4330" />
    <path
       style="display:inline;fill:#0b735c"
       d="m 311,600.89831 c -48.96986,-4.92547 -110.92883,-30.8714 -127.13051,-53.23717 -6.80228,-9.39027 -1.18151,-16.0091 19.13051,-22.52741 20.12742,-6.45907 38.743,-8.64273 66.88105,-7.84535 55.02378,1.55927 101.84755,18.78194 142.61895,52.45794 11.28722,9.32292 16.35498,14.85846 14.85223,16.22316 -1.73183,1.57272 -42.21499,11.52385 -57.35223,14.09769 -8.71554,1.48194 -47.14708,2.02333 -59,0.83114 z"
       id="path4328" />
    <path
       style="display:inline;fill:#0b735c"
       d="M 682.69359,620.93971 C 663.85612,619.26818 652.09144,615.915 628.71857,605.55566 620.89835,602.08959 610,597.58193 604.5,595.53865 c -5.5,-2.04329 -10.45,-4.16776 -11,-4.72106 -2.05299,-2.0653 22.19921,-22.58073 37.273,-31.52998 19.9103,-11.82066 50.0831,-21.14123 78.43759,-24.22985 14.56987,-1.58708 45.62975,-1.31211 59.94767,0.53071 38.19258,4.91566 74.41148,20.82299 76.48353,33.59156 0.84363,5.19869 -1.67431,9.05367 -9.91369,15.17796 -23.57001,17.51944 -53.94399,28.86681 -91.2281,34.08178 -24.22934,3.38899 -43.15855,4.15463 -61.80641,2.49994 z"
       id="path4326" />
    <path
       style="display:inline;fill:#0b735c"
       d="m 304.43353,757.92655 c -5.8401,-6.45324 -0.46023,-35.31655 11.16174,-59.88333 10.06875,-21.28355 27.96861,-42.82184 48.33507,-58.15996 18.05728,-13.59904 44.42084,-25.23755 66.72365,-29.45594 14.7538,-2.79056 49.36689,-1.77707 52.71068,1.54339 0.94008,0.93352 -31.65913,39.83049 -52.40524,62.52929 -30.00011,32.8238 -64.14929,60.45821 -93.5937,75.73845 -18.87746,9.7965 -28.90549,12.13757 -32.9322,7.6881 z"
       id="path4324" />
    <path
       style="display:inline;fill:#0b735c"
       d="M 693.5,763.58116 C 650.84588,749.38735 593.01503,698.87771 556.01344,643.5 c -2.93993,-4.4 -8.89799,-12.66675 -13.24012,-18.37055 -4.34213,-5.7038 -7.68113,-10.92731 -7.42,-11.60781 0.70505,-1.83734 5.61198,-2.52232 18.02168,-2.51574 39.6018,0.021 76.55606,16.31872 108.42174,47.81665 27.78687,27.46619 47.15436,64.18132 48.88802,92.67745 0.49953,8.21081 0.35562,9.24114 -1.64119,11.75 -2.73703,3.4389 -5.9958,3.50833 -15.54357,0.33116 z"
       id="path4263" />
    <path
       style="display:inline;fill:#252c3b"
       d="M 321,601.32827 C 278.30284,598.2701 234.34165,584.47748 204.06645,564.6409 186.8046,553.33079 179.11292,543.70957 182.19387,537.28137 c 3.82278,-7.97595 29.82305,-16.55669 58.30613,-19.24247 50.34478,-4.7472 104.83285,7.66203 146.15062,33.28465 17.03408,10.56344 40.75161,30.35782 40.1428,33.50272 -0.32843,1.69657 -24.74638,8.53318 -45.29342,12.6814 -19.27225,3.89085 -40.66104,5.24156 -60.5,3.8206 z"
       id="path4320" />
    <path
       style="display:inline;fill:#252c3b"
       d="M 669.75842,618.94681 C 656.25034,616.56792 648.46119,613.95022 627.34595,604.69325 618.08068,600.63134 606.9,596.03543 602.5,594.48013 c -4.4,-1.55531 -8.15359,-2.94068 -8.34131,-3.07862 -1.97515,-1.45133 10.75872,-13.78059 24.94227,-24.14972 15.28072,-11.17123 34.40978,-19.7928 56.89904,-25.6447 18.81183,-4.89501 31.47787,-6.62341 53.50408,-7.30114 37.15234,-1.14315 69.48044,4.71108 95.00755,17.20473 16.60367,8.12628 22.76505,14.55442 20.93591,21.84232 -1.35104,5.38297 -15.56807,16.18891 -32.44754,24.6624 -30.49724,15.30962 -68.53558,23.05058 -112.5,22.89422 -14.90343,-0.053 -22.73726,-0.55318 -30.74158,-1.96281 z"
       id="path4318" />
    <path
       style="display:inline;fill:#252c3b"
       d="m 305.05578,758.05578 c -6.90859,-6.90859 -0.74908,-36.85211 13.33023,-64.80287 9.77612,-19.40793 29.50567,-41.91485 48.63133,-55.47728 17.60418,-12.48351 44.22122,-23.71437 64.64307,-27.27564 13.78329,-2.40361 48.53923,-1.43379 51.62601,1.44056 0.43253,0.40276 -4.96747,7.45581 -12,15.67345 -7.03253,8.21763 -19.14101,22.35374 -26.90773,31.41358 -15.27599,17.81935 -41.46238,44.07436 -55.87869,56.02512 -24.98626,20.71299 -50.29482,36.53567 -67.88299,42.43982 -8.98644,3.01665 -12.96387,3.16062 -15.56123,0.56326 z"
       id="path4316" />
    <path
       style="display:inline;fill:#252c3b"
       d="m 697.5,764.51841 c -39.06272,-10.54667 -97.15586,-58.74276 -134.27344,-111.39794 -4.79961,-6.80874 -13.18563,-18.43795 -18.6356,-25.84269 -7.71223,-10.47841 -9.59857,-13.65504 -8.50861,-14.32867 4.64636,-2.87161 28.44307,-2.30642 45.00622,1.06894 40.15864,8.18381 79.09399,35.9081 105.45065,75.08716 18.30686,27.21307 29.98586,68.19269 21.41299,75.13457 -2.54234,2.05866 -3.74098,2.09062 -10.45221,0.27863 z"
       id="path4293" />
  </g>
</svg>
